<?xml version="1.0" encoding="utf-8"?>
<!-- Generator: Adobe Illustrator 27.0.0, SVG Export Plug-In . SVG Version: 6.00 Build 0)  -->
<svg version="1.1" id="Layer_1" xmlns="http://www.w3.org/2000/svg" xmlns:xlink="http://www.w3.org/1999/xlink" x="0px" y="0px"
	 viewBox="0 0 185 200" style="enable-background:new 0 0 185 200;" xml:space="preserve">
<style type="text/css">
	.st0{fill:#231F20;}
	.st1{fill:#D19D55;}
	.st2{fill:#FFFFFF;}
	.st3{opacity:0.27;}
	.st4{fill:#8B5E3C;}
</style>
<g>
	<path class="st0" d="M8.61,174.06c-5.31,0-8.61,4.19-8.61,10.93v11.18c0,2.02,1.19,3.38,2.97,3.38h1.77c0.34,0,0.61-0.27,0.61-0.61
		V185.3c0-5.24,1.24-6.16,3.85-6.16c1.32,0,2.56,0.4,3.33,1.07c0.11,0.1,0.25,0.15,0.4,0.15h0.23c0.34,0,0.61-0.27,0.61-0.61v-2
		C13.76,176.89,13.39,174.06,8.61,174.06z"/>
	<path class="st0" d="M25.52,173.56c-5.54,0-8.97,2.98-8.97,5.75v2c0,0.34,0.27,0.61,0.61,0.61h0.23c0.2,0,0.38-0.09,0.49-0.25
		c1.4-1.95,4.04-3.06,7.23-3.06c3.68,0,5.12,1.23,5.12,4.39v0.53h-2.66c-7.58,0-11.93,3.17-11.93,8.7c0,4.44,4.25,7.79,9.88,7.79
		c6.49,0,10.06-3.22,10.06-9.06v-7.64C35.58,177.02,32.01,173.56,25.52,173.56z M27.56,188.18h2.71v2.44c0,3.17-1.24,4.35-4.57,4.35
		c-2.68,0-4.62-1.35-4.62-3.21C21.08,190.87,21.08,188.18,27.56,188.18z"/>
	<path class="st0" d="M54.11,174.06h-7.75v-4.39c0-0.34-0.27-0.61-0.61-0.61h-0.5c-0.83,0-2.37,1.01-3.05,1.99
		c-0.74,1.09-1.15,2.55-1.15,4.12v15.82c0,6.07,2.74,9.02,8.38,9.02c3.19,0,5.02-1.37,5.02-3.74v-1.45c0-0.34-0.27-0.61-0.61-0.61
		h-0.23c-0.12,0-0.23,0.03-0.32,0.09c-0.63,0.4-1.77,0.59-3.49,0.59c-1.68,0-3.39-0.51-3.39-4.3v-11.44h4.53
		c2.37,0,3.79-1.16,3.79-3.11v-1.36C54.72,174.33,54.45,174.06,54.11,174.06z"/>
	<path class="st0" d="M66.84,173.56c-5.54,0-8.97,2.98-8.97,5.75v2c0,0.34,0.27,0.61,0.61,0.61h0.23c0.2,0,0.38-0.09,0.49-0.25
		c1.4-1.95,4.04-3.06,7.23-3.06c3.68,0,5.12,1.23,5.12,4.39v0.53h-2.66c-7.58,0-11.93,3.17-11.93,8.7c0,4.44,4.25,7.79,9.88,7.79
		c6.49,0,10.06-3.22,10.06-9.06v-7.64C76.9,177.02,73.33,173.56,66.84,173.56z M68.88,188.18h2.71v2.44c0,3.17-1.24,4.35-4.57,4.35
		c-2.68,0-4.62-1.35-4.62-3.21C62.4,190.87,62.4,188.18,68.88,188.18z"/>
	<path class="st0" d="M95.43,174.06h-7.76v-4.39c0-0.34-0.27-0.61-0.61-0.61h-0.5c-0.83,0-2.37,1.01-3.05,1.99
		c-0.74,1.09-1.15,2.55-1.15,4.12v15.82c0,6.07,2.74,9.02,8.38,9.02c3.19,0,5.02-1.37,5.02-3.74v-1.45c0-0.34-0.27-0.61-0.61-0.61
		h-0.23c-0.12,0-0.23,0.03-0.32,0.09c-0.63,0.4-1.77,0.59-3.49,0.59c-1.68,0-3.39-0.51-3.39-4.3v-11.44h4.53
		c2.37,0,3.79-1.16,3.79-3.11v-1.36C96.04,174.33,95.77,174.06,95.43,174.06z"/>
	<path class="st0" d="M110.11,173.6c-7.22,0-11.88,5.34-11.88,13.61c0,7.41,5,12.79,11.88,12.79c7,0,11.52-5.38,11.52-13.7
		C121.63,178.82,116.9,173.6,110.11,173.6z M110.52,194.87c-4.31,0-6.89-3.19-6.89-8.53c0-4.63,2.31-7.62,5.89-7.62
		c4.45,0,6.71,2.87,6.71,8.53C116.23,190.94,114.73,194.87,110.52,194.87z"/>
	<path class="st0" d="M136.24,184.34c-5.23-1.13-5.47-1.74-5.47-2.81c0-1.89,1.74-2.85,5.16-2.85c2.73,0,5.17,1.17,6.08,2.28
		c0.12,0.14,0.29,0.22,0.47,0.22h0.23c0.34,0,0.61-0.27,0.61-0.61v-1.82c0-3.41-3.87-5.2-7.7-5.2c-6.65,0-10.24,4.25-10.24,8.24
		c0,4.34,2.86,5.83,7.16,6.73c5.66,1.21,5.93,2.01,5.93,3.45c0,1.45-0.54,2.94-4.57,2.94c-3.3,0-5.72-1.36-6.78-2.53
		c-0.12-0.13-0.28-0.2-0.45-0.2h-0.23c-0.34,0-0.61,0.27-0.61,0.61v1.77c0,3.14,3.35,5.43,7.97,5.43c6.24,0,10.11-3.23,10.11-8.43
		C143.91,187.88,141.33,185.45,136.24,184.34z"/>
	<path class="st0" d="M167.89,174.06h-2.86c-1.56,0-2.94,0.42-3.6,1.08c-1.97,1.85-5.07,5.05-7.88,8.45v-14.64
		c0-2.12-1.22-3.34-3.34-3.34h-1.27c-0.34,0-0.61,0.27-0.61,0.61v29.45c0,3.21,1.79,3.88,3.29,3.88h1.32c0.34,0,0.61-0.27,0.61-0.61
		v-10.11c0.12,0.15,0.24,0.31,0.36,0.46c2.38,3.02,4.84,6.15,7.5,8.84c1.02,1.07,2.14,1.55,3.62,1.55c2.53,0,2.99-1.02,3.36-2.46
		c0.04-0.16,0.02-0.33-0.07-0.47c-0.08-0.14-0.22-0.24-0.38-0.28c-1.16-0.28-1.98-0.74-4.02-2.88c-2.27-2.36-4.21-4.88-6.29-7.68
		c6.44-7.2,8.38-8.75,10.64-10.56c0.14-0.12,0.23-0.29,0.23-0.47v-0.23C168.5,174.33,168.23,174.06,167.89,174.06z"/>
	<path class="st0" d="M179.85,174.06c-5.31,0-8.61,4.19-8.61,10.93v11.18c0,2.02,1.2,3.38,2.97,3.38h1.77
		c0.34,0,0.61-0.27,0.61-0.61V185.3c0-5.24,1.24-6.16,3.84-6.16c1.32,0,2.56,0.4,3.32,1.07c0.11,0.1,0.25,0.15,0.4,0.15h0.23
		c0.34,0,0.61-0.27,0.61-0.61v-2C185,176.89,184.63,174.06,179.85,174.06z"/>
</g>
<g>
	<path class="st1" d="M80.71,41.98c0.01,0,0.99,0.42,1.6,4.26c-1.28,1.63-2.13,3.26-2.67,4.47c-2.55-0.02-5.08,0.16-7.57,0.51
		C78.32,41.62,80.68,41.97,80.71,41.98z"/>
	<path class="st1" d="M71.26,137.94c-2.12-0.16-4.2,0.19-6.06,1.08l-1.47-2.41c-0.85-1.39-2.18-4.24-1.6-7.78
		c0.19-1.19,0.59-2.33,1.17-3.41h5.75c-0.09,0.56-0.17,1.12-0.22,1.69C68.5,131.39,69.66,135.04,71.26,137.94z"/>
	<path class="st1" d="M59.21,147.09c-3.54-1.9-6.77-3.99-9.68-6.12c0.62-1.59,1.58-3.11,2.82-3.45c0.79-0.22,2.19,0.15,4.73,0.82
		c1.39,0.37,2.77,0.81,4.1,1.33l1.89,0.73C60.67,142.39,59.65,145.1,59.21,147.09z"/>
	<path class="st1" d="M84.71,154.45c-0.1,0-0.2,0-0.3,0c-8.97-0.07-16.3-3.21-21.16-6.1c0.26-1.4,0.95-3.61,2.82-4.96
		c2.66-1.93,6.71-1.59,9.95,0.63c1.08,1.01,1.87,1.58,1.98,1.66c0.89,0.63,2.11,0.47,2.82-0.36c0.7-0.83,0.66-2.06-0.11-2.84
		c-0.63-0.64-1.31-1.22-2.01-1.73c-2.33-2.26-6.15-6.98-5.66-13.31c0.58-7.48,6.85-13.84,14.91-15.12c1.08-0.17,1.85-1.15,1.77-2.24
		s-1-1.94-2.1-1.94H71.27c-0.08,0-0.15,0-0.23,0.01c-2.01,0.22-3.6-1.21-3.79-2.64c-0.1-0.79,0.19-1.64,0.8-2.33
		c0.68-0.77,1.67-1.21,2.7-1.21c0.01,0,0.02,0,0.03,0c0.07,0,0.14,0,0.21-0.01l8.87-0.82c0.85-0.08,1.57-0.67,1.82-1.49
		c0.25-0.82-0.03-1.71-0.69-2.25c-0.14-0.11-1.35-1.13-1.32-2.69c0.02-1.04,0.58-2.01,1.46-2.64c0.42-0.22,0.75-0.4,0.98-0.53
		c0.96-0.55,1.33-1.76,0.84-2.76c-0.49-1-1.68-1.44-2.7-1.01c-0.45,0.19-0.88,0.42-1.28,0.68c-3.41,1.73-12.58,5.5-21.25,1.24
		c-2.55-1.25-4.81-3.08-6.7-5.43c-1.8-2.63-5.62-9.28-3.44-15.55c2.43-7,11.06-9.63,18-11.74c4.96-1.51,10.14-2.19,15.42-2.01
		c0.91,0.04,1.77-0.55,2.07-1.43c0.51-1.5,2.57-6.56,7.67-8.64c0.92-0.38,1.89-0.64,2.89-0.78c-0.24,2.37-0.38,4.74-0.43,7.08
		c-0.12,6.41-0.26,14.39,3.44,23.03c0.95,2.23,2.11,4.38,3.45,6.4c0.18,0.27,0.41,0.49,0.69,0.66c6.59,3.87,18.27,12.65,22.49,27.91
		c1.32,4.78,1.92,9.71,1.7,13.9c-0.66,2.97-1.47,6.15-3.27,9.51C114.66,145.69,99.82,154.45,84.71,154.45z"/>
	<path class="st1" d="M162.66,109.98c-11.18,28.25-37.16,42.53-60.88,45.3c9.97-4.01,18.6-11.36,23.62-20.72
		c2.15-4.02,3.08-7.92,3.63-10.4c1.84-2.97,5.67-10.28,6.16-20.35c0.42-8.65-1.91-15.78-4.43-20.85c4.61-0.4,9.13-2.59,12.46-6.15
		c3.61-3.86,5.24-8.67,4.59-13.54c-0.49-3.65-2.37-6.91-5.16-8.96c-3.05-2.24-7.06-2.86-10.45-1.61c-3.63,1.34-6.29,4.87-6.47,8.6
		c-0.19,4.04,2.52,7.87,6.31,8.9c1.12,0.31,2.28-0.36,2.58-1.48c0.3-1.12-0.36-2.28-1.48-2.58c-1.87-0.51-3.31-2.59-3.21-4.63
		c0.1-2.05,1.66-4.09,3.72-4.85c2.05-0.76,4.6-0.34,6.5,1.05c1.85,1.36,3.15,3.65,3.48,6.13c0.48,3.59-0.76,7.18-3.49,10.1
		c-3.07,3.28-7.58,5.13-11.75,4.86c-8.47-0.57-16.18-8.29-18.74-15.42c-3.84-10.69,0.52-23.95,9.92-30.2
		c9.4-6.25,21.2-5.08,28.18-1.35C167.2,42.23,174.45,80.21,162.66,109.98z"/>
	<path class="st0" d="M71.27,69.66c-0.07-1.45-0.61-2.79-1.55-3.78c-0.97-1.03-2.23-1.56-3.55-1.51c-2.67,0.12-4.73,2.69-4.59,5.73
		c0.13,2.96,2.31,5.29,4.9,5.29c0.06,0,0.13,0,0.2,0C69.35,75.27,71.41,72.7,71.27,69.66z"/>
	<ellipse class="st2" cx="67.66" cy="67.81" rx="1.41" ry="1.61"/>
	<g>
		<g class="st3">
			<path class="st4" d="M63.06,140.4l-1.89-0.73c-1.33-0.51-2.71-0.96-4.1-1.33c-2.54-0.67-3.94-1.04-4.73-0.82
				c-1.23,0.34-2.2,1.86-2.82,3.45c2.91,2.13,6.14,4.21,9.68,6.12C59.65,145.1,60.67,142.39,63.06,140.4z"/>
			<path class="st4" d="M63.06,140.4l-1.89-0.73c-1.33-0.51-2.71-0.96-4.1-1.33c-2.54-0.67-3.94-1.04-4.73-0.82
				c-1.23,0.34-2.2,1.86-2.82,3.45c2.91,2.13,6.14,4.21,9.68,6.12C59.65,145.1,60.67,142.39,63.06,140.4z"/>
		</g>
		<g class="st3">
			<path class="st4" d="M65.2,139.02c1.85-0.89,3.94-1.24,6.06-1.08c-1.6-2.9-2.76-6.55-2.43-10.84c0.04-0.57,0.12-1.13,0.22-1.69
				H63.3c-0.58,1.08-0.98,2.22-1.17,3.41c-0.58,3.54,0.76,6.39,1.6,7.78L65.2,139.02z"/>
			<path class="st4" d="M65.2,139.02c1.85-0.89,3.94-1.24,6.06-1.08c-1.6-2.9-2.76-6.55-2.43-10.84c0.04-0.57,0.12-1.13,0.22-1.69
				H63.3c-0.58,1.08-0.98,2.22-1.17,3.41c-0.58,3.54,0.76,6.39,1.6,7.78L65.2,139.02z"/>
		</g>
		<g class="st3">
			<path class="st4" d="M162.66,109.98c2.56-6.47,4.22-13.32,5.05-20.19c-3.22,7.4-9.5,17.76-21.3,24.47
				c-5.45,3.09-10.72,4.64-15.03,5.43c-0.88,1.95-1.73,3.47-2.36,4.48c-0.55,2.47-1.48,6.38-3.63,10.4
				c-5.02,9.36-13.64,16.7-23.62,20.72C125.5,152.51,151.48,138.23,162.66,109.98z"/>
			<path class="st4" d="M162.66,109.98c2.56-6.47,4.22-13.32,5.05-20.19c-3.22,7.4-9.5,17.76-21.3,24.47
				c-5.45,3.09-10.72,4.64-15.03,5.43c-0.88,1.95-1.73,3.47-2.36,4.48c-0.55,2.47-1.48,6.38-3.63,10.4
				c-5.02,9.36-13.64,16.7-23.62,20.72C125.5,152.51,151.48,138.23,162.66,109.98z"/>
		</g>
		<g class="st3">
			<path class="st4" d="M121.69,132.57c1.8-3.35,2.61-6.53,3.27-9.51c0.23-4.19-0.37-9.12-1.7-13.9c-0.09-0.34-0.21-0.65-0.31-0.98
				c-0.04-0.07-0.07-0.15-0.11-0.22c0.14,14.96-7.32,26.83-16.57,28.93c-7.64,1.74-16.45-3.2-21.24-7.47
				c-5.22-4.65-6.98-9.65-8.77-10.22c-1.23,1.61-2.16,3.41-2.71,5.33c-0.19,1.7-0.3,3.9-0.3,6.73c0.85,4.4,3.6,7.7,5.43,9.48
				c0.71,0.51,1.38,1.09,2.01,1.73c0.77,0.78,0.81,2.01,0.11,2.84c-0.71,0.83-1.93,0.99-2.82,0.36c-0.11-0.08-0.9-0.65-1.98-1.66
				c-3.23-2.21-7.29-2.55-9.95-0.63c-1.86,1.35-2.56,3.56-2.82,4.96c4.86,2.89,12.19,6.03,21.16,6.1c0.1,0,0.2,0,0.3,0
				C99.82,154.45,114.66,145.69,121.69,132.57z"/>
			<path class="st4" d="M121.69,132.57c1.8-3.35,2.61-6.53,3.27-9.51c0.23-4.19-0.37-9.12-1.7-13.9c-0.09-0.34-0.21-0.65-0.31-0.98
				c-0.04-0.07-0.07-0.15-0.11-0.22c0.14,14.96-7.32,26.83-16.57,28.93c-7.64,1.74-16.45-3.2-21.24-7.47
				c-5.22-4.65-6.98-9.65-8.77-10.22c-1.23,1.61-2.16,3.41-2.71,5.33c-0.19,1.7-0.3,3.9-0.3,6.73c0.85,4.4,3.6,7.7,5.43,9.48
				c0.71,0.51,1.38,1.09,2.01,1.73c0.77,0.78,0.81,2.01,0.11,2.84c-0.71,0.83-1.93,0.99-2.82,0.36c-0.11-0.08-0.9-0.65-1.98-1.66
				c-3.23-2.21-7.29-2.55-9.95-0.63c-1.86,1.35-2.56,3.56-2.82,4.96c4.86,2.89,12.19,6.03,21.16,6.1c0.1,0,0.2,0,0.3,0
				C99.82,154.45,114.66,145.69,121.69,132.57z"/>
		</g>
	</g>
	<path class="st0" d="M171.11,63.41c-3.06-17.03-10.65-29.56-21.37-35.3c-8.05-4.31-21.65-5.65-32.5,1.56
		c-10.94,7.27-16.01,22.7-11.55,35.13c2.76,7.69,10.6,16.15,20.16,17.91c2.64,4.59,5.57,11.83,5.13,20.9
		c-0.22,4.43-1.14,8.25-2.22,11.32c-0.29-2.08-0.75-4.39-1.44-6.89c-4.53-16.36-16.78-25.84-23.99-30.16
		c-1.09-1.69-2.04-3.49-2.83-5.34c-3.34-7.81-3.21-15.29-3.1-21.3c0.05-3,0.28-6.06,0.68-9.1c0.08-0.59-0.1-1.18-0.48-1.63
		c-0.38-0.45-0.94-0.72-1.53-0.74c-2.43-0.09-4.77,0.32-6.94,1.21c-1.23,0.5-2.32,1.14-3.29,1.84c-0.82-2.71-2.12-4.31-3.91-4.86
		c-4.01-1.22-8.82,3.24-15.54,14.4c-0.69,0.18-1.37,0.37-2.05,0.57c-7.43,2.27-17.61,5.37-20.74,14.39
		c-2.83,8.14,1.85,16.27,3.99,19.38c0.03,0.04,0.06,0.08,0.09,0.12c1.13,1.41,2.37,2.66,3.71,3.76H37.2v34.84h21.5
		c-0.32,0.89-0.57,1.8-0.72,2.73c-0.38,2.3-0.17,4.39,0.27,6.14c-0.03-0.01-0.06-0.02-0.09-0.02c-3.25-0.86-5.05-1.34-6.94-0.81
		c-2.57,0.72-4.17,2.83-5.13,4.86c-8.95-7.25-14.18-14.33-15.28-15.88c-3.15-4.47-5.82-9.32-7.97-14.45c-0.41-2.38-2-13.19,0-25.62
		c0.14,0.21,0.34,0.38,0.61,0.44c0.76,0.17,1.71,0.31,2.8,0.31c1.18,0,2.5-0.17,3.89-0.64c5.4-1.86,7.46-7.03,7.82-8.05
		c0.1-0.27,0.07-0.57-0.07-0.82c-0.14-0.25-0.39-0.42-0.67-0.48c-1.47-0.29-6.58-0.96-10.95,2.36c-1.01,0.76-1.88,1.7-2.63,2.75
		C26,67.63,31.25,56.4,42.16,48.53c0.94-0.68,1.16-2,0.48-2.94c-0.68-0.94-2-1.15-2.94-0.48c-12.14,8.75-19.6,22.65-21.57,40.2
		c-0.2,1.75-0.33,3.45-0.41,5.08c-0.13-0.78-0.26-1.56-0.37-2.35C14.23,66.2,22.78,42.63,39.4,26.09c0.07-0.05,0.14-0.1,0.2-0.16
		c3.06-2.97,7.86-6.04,12.17-5.77c2.51,0.16,4.88,1.44,6.18,3.35c1.32,1.93,1.49,4.6,0.41,6.48c-1.08,1.9-3.47,2.97-5.45,2.44
		c-1.31-0.35-2.38-1.46-2.5-2.58c-0.13-1.27,0.95-2.02,2.02-2.18c1.15-0.17,1.95-1.24,1.78-2.39c-0.17-1.15-1.24-1.95-2.39-1.78
		c-3.55,0.52-5.95,3.44-5.6,6.79c0.3,2.85,2.6,5.4,5.6,6.2c0.69,0.19,1.4,0.28,2.12,0.28c3.2,0,6.44-1.8,8.08-4.7
		c1.86-3.28,1.62-7.67-0.6-10.93c-2.04-3-5.55-4.94-9.39-5.18c0,0-0.01,0-0.01,0c3.62-2.31,8.03-4.69,13.16-6.71
		c0.2,0,0.4-0.02,0.6-0.07c4.29-1.25,11.01-2.3,18.7-0.22c4.79,1.29,9.35,3.69,13.19,6.93c0.39,0.33,0.88,0.5,1.36,0.5
		c0.6,0,1.19-0.25,1.61-0.75c0.75-0.89,0.64-2.22-0.25-2.97c-4.31-3.63-9.43-6.32-14.81-7.77c-0.41-0.11-0.81-0.21-1.22-0.3
		c1.61-0.16,3.25-0.29,4.93-0.35c9.67-0.31,19.25,1.33,28.47,4.88c1.08,0.42,2.3-0.12,2.72-1.21c0.42-1.08-0.12-2.3-1.21-2.72
		c-9.74-3.75-19.88-5.48-30.11-5.16C66.52,0.76,50.18,11.4,42.45,17.68C21.01,35.11,9.51,62.97,13.17,88.65
		c1.01,7.1,2.91,14,5.59,20.5c0.01,0.07,0.03,0.13,0.03,0.15c0.06,0.31,0.2,0.59,0.37,0.83c2.23,5.22,4.98,10.16,8.19,14.73
		c4.08,5.78,26.37,34.66,64.88,35.13c0.3,0,0.61,0.01,0.91,0.01c27.15,0,60.13-14.9,73.42-48.47
		C172.34,96.97,173.99,79.43,171.11,63.41z M80.71,41.98c0.01,0,0.99,0.42,1.6,4.26c-1.28,1.63-2.13,3.26-2.67,4.47
		c-2.55-0.02-5.08,0.16-7.57,0.51C78.32,41.62,80.68,41.97,80.71,41.98z M59.12,94.79v-0.04c6.06,1.9,11.98,0.99,16.35-0.37
		c0,0.08-0.01,0.15-0.01,0.23c-0.02,1,0.16,1.89,0.45,2.66l-5.21,0.48c-2.22,0.01-4.33,0.97-5.81,2.63
		c-1.42,1.6-2.09,3.67-1.82,5.67c0.25,1.91,1.28,3.55,2.74,4.68l-0.52,0.37L45.23,94.79H59.12z M41.41,121.21v-24.1l22.46,18.26
		c0.39,0.31,0.86,0.47,1.33,0.47c0.42,0,0.85-0.13,1.21-0.38l4.39-3.09c0.19,0,0.38-0.01,0.58-0.03h5.93
		c-3.12,2.31-5.57,5.38-7.03,8.87H41.41z M71.26,137.94c-2.12-0.16-4.2,0.19-6.06,1.08l-1.47-2.41c-0.85-1.39-2.18-4.24-1.6-7.78
		c0.19-1.19,0.59-2.33,1.17-3.41h5.75c-0.09,0.56-0.17,1.12-0.22,1.69C68.5,131.39,69.66,135.04,71.26,137.94z M59.21,147.09
		c-3.54-1.9-6.77-3.99-9.68-6.12c0.62-1.59,1.58-3.11,2.82-3.45c0.79-0.22,2.19,0.15,4.73,0.82c1.39,0.37,2.77,0.81,4.1,1.33
		l1.89,0.73C60.67,142.39,59.65,145.1,59.21,147.09z M84.71,154.45c-0.1,0-0.2,0-0.3,0c-8.97-0.07-16.3-3.21-21.16-6.1
		c0.26-1.4,0.95-3.61,2.82-4.96c2.66-1.93,6.71-1.59,9.95,0.63c1.08,1.01,1.87,1.58,1.98,1.66c0.89,0.63,2.11,0.47,2.82-0.36
		c0.7-0.83,0.66-2.06-0.11-2.84c-0.63-0.64-1.31-1.22-2.01-1.73c-2.33-2.26-6.15-6.98-5.66-13.31c0.58-7.48,6.85-13.84,14.91-15.12
		c1.08-0.17,1.85-1.15,1.77-2.24s-1-1.94-2.1-1.94H71.27c-0.08,0-0.15,0-0.23,0.01c-2.01,0.22-3.6-1.21-3.79-2.64
		c-0.1-0.79,0.19-1.64,0.8-2.33c0.68-0.77,1.67-1.21,2.7-1.21c0.01,0,0.02,0,0.03,0c0.07,0,0.14,0,0.21-0.01l8.87-0.82
		c0.85-0.08,1.57-0.67,1.82-1.49c0.25-0.82-0.03-1.71-0.69-2.25c-0.14-0.11-1.35-1.13-1.32-2.69c0.02-1.04,0.58-2.01,1.46-2.64
		c0.42-0.22,0.75-0.4,0.98-0.53c0.96-0.55,1.33-1.76,0.84-2.76c-0.49-1-1.68-1.44-2.7-1.01c-0.45,0.19-0.88,0.42-1.28,0.68
		c-3.41,1.73-12.58,5.5-21.25,1.24c-2.55-1.25-4.81-3.08-6.7-5.43c-1.8-2.63-5.62-9.28-3.44-15.55c2.43-7,11.06-9.63,18-11.74
		c4.96-1.51,10.14-2.19,15.42-2.01c0.91,0.04,1.77-0.55,2.07-1.43c0.51-1.5,2.57-6.56,7.67-8.64c0.92-0.38,1.89-0.64,2.89-0.78
		c-0.24,2.37-0.38,4.74-0.43,7.08c-0.12,6.41-0.26,14.39,3.44,23.03c0.95,2.23,2.11,4.38,3.45,6.4c0.18,0.27,0.41,0.49,0.69,0.66
		c6.59,3.87,18.27,12.65,22.49,27.91c1.32,4.78,1.92,9.71,1.7,13.9c-0.66,2.97-1.47,6.15-3.27,9.51
		C114.66,145.69,99.82,154.45,84.71,154.45z M162.66,109.98c-11.18,28.25-37.16,42.53-60.88,45.3c9.97-4.01,18.6-11.36,23.62-20.72
		c2.15-4.02,3.08-7.92,3.63-10.4c1.84-2.97,5.67-10.28,6.16-20.35c0.42-8.65-1.91-15.78-4.43-20.85c4.61-0.4,9.13-2.59,12.46-6.15
		c3.61-3.86,5.24-8.67,4.59-13.54c-0.49-3.65-2.37-6.91-5.16-8.96c-3.05-2.24-7.06-2.86-10.45-1.61c-3.63,1.34-6.29,4.87-6.47,8.6
		c-0.19,4.04,2.52,7.87,6.31,8.9c1.12,0.31,2.28-0.36,2.58-1.48c0.3-1.12-0.36-2.28-1.48-2.58c-1.87-0.51-3.31-2.59-3.21-4.63
		c0.1-2.05,1.66-4.09,3.72-4.85c2.05-0.76,4.6-0.34,6.5,1.05c1.85,1.36,3.15,3.65,3.48,6.13c0.48,3.59-0.76,7.18-3.49,10.1
		c-3.07,3.28-7.58,5.13-11.75,4.86c-8.47-0.57-16.18-8.29-18.74-15.42c-3.84-10.69,0.52-23.95,9.92-30.2
		c9.4-6.25,21.2-5.08,28.18-1.35C167.2,42.23,174.45,80.21,162.66,109.98z"/>
</g>
</svg>
