<?xml version="1.0" encoding="utf-8"?>
<!-- Generator: Adobe Illustrator 27.0.0, SVG Export Plug-In . SVG Version: 6.00 Build 0)  -->
<svg version="1.1" id="Layer_1" xmlns="http://www.w3.org/2000/svg" xmlns:xlink="http://www.w3.org/1999/xlink" x="0px" y="0px"
	 viewBox="0 0 185 34.4" style="enable-background:new 0 0 185 34.4;" xml:space="preserve">
<style type="text/css">
	.st0{fill:#231F20;}
</style>
<g>
	<path class="st0" d="M8.61,8.45C3.3,8.45,0,12.64,0,19.38v11.18c0,2.02,1.19,3.38,2.97,3.38h1.77c0.34,0,0.61-0.27,0.61-0.61V19.7
		c0-5.24,1.24-6.16,3.85-6.16c1.32,0,2.56,0.4,3.33,1.07c0.11,0.1,0.25,0.15,0.4,0.15h0.23c0.34,0,0.61-0.27,0.61-0.61v-2
		C13.76,11.29,13.39,8.45,8.61,8.45z"/>
	<path class="st0" d="M25.52,7.95c-5.54,0-8.97,2.98-8.97,5.75v2c0,0.34,0.27,0.61,0.61,0.61h0.23c0.2,0,0.38-0.09,0.49-0.25
		c1.4-1.95,4.04-3.06,7.23-3.06c3.68,0,5.12,1.23,5.12,4.39v0.53h-2.66c-7.58,0-11.93,3.17-11.93,8.7c0,4.44,4.25,7.79,9.88,7.79
		c6.49,0,10.06-3.22,10.06-9.06V17.7C35.58,11.41,32.01,7.95,25.52,7.95z M27.56,22.58h2.71v2.44c0,3.17-1.24,4.35-4.57,4.35
		c-2.68,0-4.62-1.35-4.62-3.21C21.08,25.27,21.08,22.58,27.56,22.58z"/>
	<path class="st0" d="M54.11,8.45h-7.75V4.06c0-0.34-0.27-0.61-0.61-0.61h-0.5c-0.83,0-2.37,1.01-3.05,1.99
		C41.46,6.54,41.05,8,41.05,9.56v15.82c0,6.07,2.74,9.02,8.38,9.02c3.19,0,5.02-1.37,5.02-3.74V29.2c0-0.34-0.27-0.61-0.61-0.61
		h-0.23c-0.12,0-0.23,0.03-0.32,0.09c-0.63,0.4-1.77,0.59-3.49,0.59c-1.68,0-3.39-0.51-3.39-4.3V13.54h4.53
		c2.37,0,3.79-1.16,3.79-3.11V9.06C54.72,8.73,54.45,8.45,54.11,8.45z"/>
	<path class="st0" d="M66.84,7.95c-5.54,0-8.97,2.98-8.97,5.75v2c0,0.34,0.27,0.61,0.61,0.61h0.23c0.2,0,0.38-0.09,0.49-0.25
		c1.4-1.95,4.04-3.06,7.23-3.06c3.68,0,5.12,1.23,5.12,4.39v0.53h-2.66c-7.58,0-11.93,3.17-11.93,8.7c0,4.44,4.25,7.79,9.88,7.79
		c6.49,0,10.06-3.22,10.06-9.06V17.7C76.9,11.41,73.33,7.95,66.84,7.95z M68.88,22.58h2.71v2.44c0,3.17-1.24,4.35-4.57,4.35
		c-2.68,0-4.62-1.35-4.62-3.21C62.4,25.27,62.4,22.58,68.88,22.58z"/>
	<path class="st0" d="M95.43,8.45h-7.76V4.06c0-0.34-0.27-0.61-0.61-0.61h-0.5c-0.83,0-2.37,1.01-3.05,1.99
		C82.78,6.54,82.37,8,82.37,9.56v15.82c0,6.07,2.74,9.02,8.38,9.02c3.19,0,5.02-1.37,5.02-3.74V29.2c0-0.34-0.27-0.61-0.61-0.61
		h-0.23c-0.12,0-0.23,0.03-0.32,0.09c-0.63,0.4-1.77,0.59-3.49,0.59c-1.68,0-3.39-0.51-3.39-4.3V13.54h4.53
		c2.37,0,3.79-1.16,3.79-3.11V9.06C96.04,8.73,95.77,8.45,95.43,8.45z"/>
	<path class="st0" d="M110.11,8c-7.22,0-11.88,5.34-11.88,13.61c0,7.41,5,12.79,11.88,12.79c7,0,11.52-5.38,11.52-13.7
		C121.63,13.22,116.9,8,110.11,8z M110.52,29.27c-4.31,0-6.89-3.19-6.89-8.53c0-4.63,2.31-7.62,5.89-7.62
		c4.45,0,6.71,2.87,6.71,8.53C116.23,25.34,114.73,29.27,110.52,29.27z"/>
	<path class="st0" d="M136.24,18.74c-5.23-1.13-5.47-1.74-5.47-2.81c0-1.89,1.74-2.85,5.16-2.85c2.73,0,5.17,1.17,6.08,2.28
		c0.12,0.14,0.29,0.22,0.47,0.22h0.23c0.34,0,0.61-0.27,0.61-0.61v-1.82c0-3.41-3.87-5.2-7.7-5.2c-6.65,0-10.24,4.25-10.24,8.24
		c0,4.34,2.86,5.83,7.16,6.73c5.66,1.21,5.93,2.01,5.93,3.45c0,1.45-0.54,2.94-4.57,2.94c-3.3,0-5.72-1.36-6.78-2.53
		c-0.12-0.13-0.28-0.2-0.45-0.2h-0.23c-0.34,0-0.61,0.27-0.61,0.61v1.77c0,3.14,3.35,5.43,7.97,5.43c6.24,0,10.11-3.23,10.11-8.43
		C143.91,22.28,141.33,19.84,136.24,18.74z"/>
	<path class="st0" d="M167.89,8.45h-2.86c-1.56,0-2.94,0.42-3.6,1.08c-1.97,1.85-5.07,5.05-7.88,8.45V3.34
		c0-2.12-1.22-3.34-3.34-3.34h-1.27c-0.34,0-0.61,0.27-0.61,0.61v29.45c0,3.21,1.79,3.88,3.29,3.88h1.32c0.34,0,0.61-0.27,0.61-0.61
		V23.22c0.12,0.15,0.24,0.31,0.36,0.46c2.38,3.02,4.84,6.15,7.5,8.84c1.02,1.07,2.14,1.55,3.62,1.55c2.53,0,2.99-1.02,3.36-2.46
		c0.04-0.16,0.02-0.33-0.07-0.47c-0.08-0.14-0.22-0.24-0.38-0.28c-1.16-0.28-1.98-0.74-4.02-2.88c-2.27-2.36-4.21-4.88-6.29-7.68
		c6.44-7.2,8.38-8.75,10.64-10.56c0.14-0.12,0.23-0.29,0.23-0.47V9.06C168.5,8.73,168.23,8.45,167.89,8.45z"/>
	<path class="st0" d="M179.85,8.45c-5.31,0-8.61,4.19-8.61,10.93v11.18c0,2.02,1.2,3.38,2.97,3.38h1.77c0.34,0,0.61-0.27,0.61-0.61
		V19.7c0-5.24,1.24-6.16,3.84-6.16c1.32,0,2.56,0.4,3.32,1.07c0.11,0.1,0.25,0.15,0.4,0.15h0.23c0.34,0,0.61-0.27,0.61-0.61v-2
		C185,11.29,184.63,8.45,179.85,8.45z"/>
</g>
</svg>
